# xmcd
#
# Track frame offsets:
#	150
#	3078
#	15905
#	33375
#	40683
#	60047
#	73388
#	89906
#	103650
#	125776
#	136905
#	162748
#	180084
#
# Disc length: 2549 seconds
#
# Revision: 1
# Processed by: cddbd v1.5.2PL0 Copyright (c) Steve Scherf et al.
# Submitted via: audiograbber 1.83.01
#
DISCID=a309f30d
DTITLE=Дмитрий Максимачёв - Хореография
DYEAR=2008
DGENRE=
TTITLE0=Увертюра
TTITLE1=3-4 минуты
TTITLE2=Две весны
TTITLE3=Хореография
TTITLE4=Не заметил
TTITLE5=Всё о себе
TTITLE6=Знал, что будет так
TTITLE7=Вальс
TTITLE8=Знай
TTITLE9=Хореография
TTITLE10=Для тебя
TTITLE11=Колыбельная
TTITLE12=Я шагаю по Москве (bonus track)
EXTD=
EXTT0=
EXTT1=
EXTT2=
EXTT3=
EXTT4=
EXTT5=
EXTT6=
EXTT7=
EXTT8=
EXTT9=
EXTT10=
EXTT11=
EXTT12=
PLAYORDER=
